<mxfile host="app.diagrams.net" modified="2022-07-19T09:13:04.209Z" agent="5.0 (Windows NT 10.0; Win64; x64) AppleWebKit/537.36 (KHTML, like Gecko) Chrome/103.0.0.0 Safari/537.36" etag="dQbjLYSHMkTtt1AVvNqW" version="20.0.4" type="github">
  <diagram id="kgpKYQtTHZ0yAKxKKP6v" name="Page-1">
    <mxGraphModel dx="2035" dy="635" grid="1" gridSize="10" guides="1" tooltips="1" connect="1" arrows="1" fold="1" page="1" pageScale="1" pageWidth="850" pageHeight="1100" math="0" shadow="0">
      <root>
        <mxCell id="0" />
        <mxCell id="1" parent="0" />
        <mxCell id="3nuBFxr9cyL0pnOWT2aG-1" value="DebuggingServiceImpl" style="shape=umlLifeline;perimeter=lifelinePerimeter;container=1;collapsible=0;recursiveResize=0;rounded=0;shadow=0;strokeWidth=1;" parent="1" vertex="1">
          <mxGeometry x="-230" y="70" width="150" height="460" as="geometry" />
        </mxCell>
        <mxCell id="3nuBFxr9cyL0pnOWT2aG-2" value="" style="points=[];perimeter=orthogonalPerimeter;rounded=0;shadow=0;strokeWidth=1;" parent="3nuBFxr9cyL0pnOWT2aG-1" vertex="1">
          <mxGeometry x="70" y="65" width="10" height="375" as="geometry" />
        </mxCell>
        <mxCell id="3nuBFxr9cyL0pnOWT2aG-3" value="DebuggingService&#xa;#running" style="verticalAlign=bottom;startArrow=oval;endArrow=block;startSize=8;shadow=0;strokeWidth=1;" parent="3nuBFxr9cyL0pnOWT2aG-1" target="3nuBFxr9cyL0pnOWT2aG-2" edge="1">
          <mxGeometry x="-0.1765" y="-40" relative="1" as="geometry">
            <mxPoint x="-15" y="70" as="sourcePoint" />
            <Array as="points">
              <mxPoint x="20" y="70" />
              <mxPoint x="30" y="70" />
            </Array>
            <mxPoint as="offset" />
          </mxGeometry>
        </mxCell>
        <mxCell id="3nuBFxr9cyL0pnOWT2aG-5" value="DebuggingTaskBusiness" style="shape=umlLifeline;perimeter=lifelinePerimeter;container=1;collapsible=0;recursiveResize=0;rounded=0;shadow=0;strokeWidth=1;" parent="1" vertex="1">
          <mxGeometry x="-40" y="70" width="170" height="460" as="geometry" />
        </mxCell>
        <mxCell id="3nuBFxr9cyL0pnOWT2aG-6" value="" style="points=[];perimeter=orthogonalPerimeter;rounded=0;shadow=0;strokeWidth=1;" parent="3nuBFxr9cyL0pnOWT2aG-5" vertex="1">
          <mxGeometry x="80" y="80" width="10" height="360" as="geometry" />
        </mxCell>
        <mxCell id="3nuBFxr9cyL0pnOWT2aG-7" value="RpcResultDTO&lt;String&gt;  taskId" style="verticalAlign=bottom;endArrow=open;dashed=1;endSize=8;exitX=0;exitY=0.95;shadow=0;strokeWidth=1;" parent="1" source="3nuBFxr9cyL0pnOWT2aG-6" target="3nuBFxr9cyL0pnOWT2aG-2" edge="1">
          <mxGeometry x="0.0526" y="-12" relative="1" as="geometry">
            <mxPoint x="275" y="236" as="targetPoint" />
            <mxPoint as="offset" />
          </mxGeometry>
        </mxCell>
        <mxCell id="3nuBFxr9cyL0pnOWT2aG-8" value="running" style="verticalAlign=bottom;endArrow=block;entryX=-0.3;entryY=0.069;shadow=0;strokeWidth=1;entryDx=0;entryDy=0;entryPerimeter=0;" parent="1" source="3nuBFxr9cyL0pnOWT2aG-2" target="3nuBFxr9cyL0pnOWT2aG-6" edge="1">
          <mxGeometry relative="1" as="geometry">
            <mxPoint x="275" y="160" as="sourcePoint" />
          </mxGeometry>
        </mxCell>
        <mxCell id="IpG74CALEGy_LHDKiSj2-1" value="AbstractArtTaskBusiness " style="shape=umlLifeline;perimeter=lifelinePerimeter;container=1;collapsible=0;recursiveResize=0;rounded=0;shadow=0;strokeWidth=1;" vertex="1" parent="1">
          <mxGeometry x="150" y="70" width="170" height="450" as="geometry" />
        </mxCell>
        <mxCell id="IpG74CALEGy_LHDKiSj2-7" value="" style="points=[];perimeter=orthogonalPerimeter;rounded=0;shadow=0;strokeWidth=1;" vertex="1" parent="IpG74CALEGy_LHDKiSj2-1">
          <mxGeometry x="80" y="80" width="10" height="330" as="geometry" />
        </mxCell>
        <mxCell id="IpG74CALEGy_LHDKiSj2-9" value="debuggingExecute" style="text;html=1;align=center;verticalAlign=middle;resizable=0;points=[];autosize=1;strokeColor=none;fillColor=none;" vertex="1" parent="IpG74CALEGy_LHDKiSj2-1">
          <mxGeometry x="-70" y="70" width="120" height="30" as="geometry" />
        </mxCell>
        <mxCell id="IpG74CALEGy_LHDKiSj2-32" value="" style="endArrow=classic;html=1;rounded=0;" edge="1" parent="IpG74CALEGy_LHDKiSj2-1">
          <mxGeometry width="50" height="50" relative="1" as="geometry">
            <mxPoint x="90" y="280" as="sourcePoint" />
            <mxPoint x="90" y="306.9999999999999" as="targetPoint" />
            <Array as="points">
              <mxPoint x="220" y="280" />
              <mxPoint x="220" y="307" />
            </Array>
          </mxGeometry>
        </mxCell>
        <mxCell id="IpG74CALEGy_LHDKiSj2-36" value="" style="edgeStyle=orthogonalEdgeStyle;rounded=0;orthogonalLoop=1;jettySize=auto;html=1;entryX=-0.271;entryY=0.819;entryDx=0;entryDy=0;entryPerimeter=0;" edge="1" parent="IpG74CALEGy_LHDKiSj2-1" target="IpG74CALEGy_LHDKiSj2-17">
          <mxGeometry relative="1" as="geometry">
            <mxPoint x="90" y="350" as="sourcePoint" />
            <mxPoint x="325" y="350" as="targetPoint" />
            <Array as="points" />
          </mxGeometry>
        </mxCell>
        <mxCell id="IpG74CALEGy_LHDKiSj2-42" value="RpcResultDTO&lt;String&gt;  taskId" style="verticalAlign=bottom;endArrow=open;dashed=1;endSize=8;exitX=0;exitY=0.95;shadow=0;strokeWidth=1;" edge="1" parent="IpG74CALEGy_LHDKiSj2-1">
          <mxGeometry y="-10" relative="1" as="geometry">
            <mxPoint x="-100" y="400" as="targetPoint" />
            <mxPoint x="80" y="400" as="sourcePoint" />
            <mxPoint as="offset" />
          </mxGeometry>
        </mxCell>
        <mxCell id="IpG74CALEGy_LHDKiSj2-3" value="StreamArtTaskBusiness" style="shape=umlLifeline;perimeter=lifelinePerimeter;container=1;collapsible=0;recursiveResize=0;rounded=0;shadow=0;strokeWidth=1;" vertex="1" parent="1">
          <mxGeometry x="400" y="70" width="160" height="280" as="geometry" />
        </mxCell>
        <mxCell id="IpG74CALEGy_LHDKiSj2-13" value="" style="points=[];perimeter=orthogonalPerimeter;rounded=0;shadow=0;strokeWidth=1;" vertex="1" parent="IpG74CALEGy_LHDKiSj2-3">
          <mxGeometry x="75" y="80" width="10" height="170" as="geometry" />
        </mxCell>
        <mxCell id="IpG74CALEGy_LHDKiSj2-24" value="" style="endArrow=classic;html=1;rounded=0;" edge="1" parent="IpG74CALEGy_LHDKiSj2-3" target="IpG74CALEGy_LHDKiSj2-13">
          <mxGeometry width="50" height="50" relative="1" as="geometry">
            <mxPoint x="84" y="123" as="sourcePoint" />
            <mxPoint x="90" y="160" as="targetPoint" />
            <Array as="points">
              <mxPoint x="220" y="123" />
              <mxPoint x="220" y="150" />
            </Array>
          </mxGeometry>
        </mxCell>
        <mxCell id="IpG74CALEGy_LHDKiSj2-25" value="" style="endArrow=classic;html=1;rounded=0;" edge="1" parent="IpG74CALEGy_LHDKiSj2-3">
          <mxGeometry width="50" height="50" relative="1" as="geometry">
            <mxPoint x="86" y="210" as="sourcePoint" />
            <mxPoint x="86" y="240" as="targetPoint" />
            <Array as="points">
              <mxPoint x="220" y="210" />
              <mxPoint x="220" y="240" />
            </Array>
          </mxGeometry>
        </mxCell>
        <mxCell id="IpG74CALEGy_LHDKiSj2-33" value="setFileSystemInfo ...（配置文件系统等参数）" style="text;html=1;align=center;verticalAlign=middle;resizable=0;points=[];autosize=1;strokeColor=none;fillColor=none;" vertex="1" parent="IpG74CALEGy_LHDKiSj2-3">
          <mxGeometry x="-155" y="250" width="260" height="30" as="geometry" />
        </mxCell>
        <mxCell id="IpG74CALEGy_LHDKiSj2-31" value="return TaskExecuteRequest&#xa;（作为Dispatcher启动作业的入参）  " style="verticalAlign=bottom;endArrow=open;dashed=1;endSize=8;shadow=0;strokeWidth=1;entryX=-0.018;entryY=-0.139;entryDx=0;entryDy=0;entryPerimeter=0;" edge="1" parent="IpG74CALEGy_LHDKiSj2-3" source="IpG74CALEGy_LHDKiSj2-3" target="IpG74CALEGy_LHDKiSj2-33">
          <mxGeometry relative="1" as="geometry">
            <mxPoint x="-120" y="250.0000000000001" as="targetPoint" />
            <mxPoint x="70" y="250.0000000000001" as="sourcePoint" />
          </mxGeometry>
        </mxCell>
        <mxCell id="IpG74CALEGy_LHDKiSj2-5" value="ArtTaskService" style="shape=umlLifeline;perimeter=lifelinePerimeter;container=1;collapsible=0;recursiveResize=0;rounded=0;shadow=0;strokeWidth=1;" vertex="1" parent="1">
          <mxGeometry x="640" y="70" width="150" height="450" as="geometry" />
        </mxCell>
        <mxCell id="IpG74CALEGy_LHDKiSj2-17" value="" style="points=[];perimeter=orthogonalPerimeter;rounded=0;shadow=0;strokeWidth=1;" vertex="1" parent="IpG74CALEGy_LHDKiSj2-5">
          <mxGeometry x="70" y="80" width="10" height="330" as="geometry" />
        </mxCell>
        <mxCell id="IpG74CALEGy_LHDKiSj2-8" value="" style="edgeStyle=orthogonalEdgeStyle;rounded=0;orthogonalLoop=1;jettySize=auto;html=1;" edge="1" parent="1" source="3nuBFxr9cyL0pnOWT2aG-6" target="IpG74CALEGy_LHDKiSj2-7">
          <mxGeometry relative="1" as="geometry">
            <Array as="points">
              <mxPoint x="200" y="170" />
              <mxPoint x="200" y="170" />
            </Array>
          </mxGeometry>
        </mxCell>
        <mxCell id="IpG74CALEGy_LHDKiSj2-14" value="" style="edgeStyle=orthogonalEdgeStyle;rounded=0;orthogonalLoop=1;jettySize=auto;html=1;" edge="1" parent="1" source="IpG74CALEGy_LHDKiSj2-7" target="IpG74CALEGy_LHDKiSj2-13">
          <mxGeometry relative="1" as="geometry">
            <Array as="points">
              <mxPoint x="310" y="190" />
              <mxPoint x="310" y="190" />
            </Array>
          </mxGeometry>
        </mxCell>
        <mxCell id="IpG74CALEGy_LHDKiSj2-16" value="getDebuggingTaskExecuteRequest&lt;br&gt;AndBdpStudioDebuggingTask" style="text;html=1;align=center;verticalAlign=middle;resizable=0;points=[];autosize=1;strokeColor=none;fillColor=none;" vertex="1" parent="1">
          <mxGeometry x="250" y="150" width="210" height="40" as="geometry" />
        </mxCell>
        <mxCell id="IpG74CALEGy_LHDKiSj2-39" value="execute （提交任务至调度层）" style="text;html=1;align=center;verticalAlign=middle;resizable=0;points=[];autosize=1;strokeColor=none;fillColor=none;" vertex="1" parent="1">
          <mxGeometry x="360" y="390" width="190" height="30" as="geometry" />
        </mxCell>
        <mxCell id="IpG74CALEGy_LHDKiSj2-40" value="return：RpcResultDTO&lt;String&gt;  taskId" style="verticalAlign=bottom;endArrow=open;dashed=1;endSize=8;shadow=0;strokeWidth=1;entryX=-0.018;entryY=-0.139;entryDx=0;entryDy=0;entryPerimeter=0;" edge="1" parent="1" source="IpG74CALEGy_LHDKiSj2-17">
          <mxGeometry relative="1" as="geometry">
            <mxPoint x="240.00000000000003" y="460.83000000000004" as="targetPoint" />
            <mxPoint x="472.52" y="460.0000000000001" as="sourcePoint" />
          </mxGeometry>
        </mxCell>
        <mxCell id="IpG74CALEGy_LHDKiSj2-19" value="updateDataSourceConfig&lt;br&gt;ByDebuggingConfig&amp;nbsp; &lt;br&gt;（&lt;span lang=&quot;zh-CN&quot;&gt;基于调试测试数据配置&lt;br&gt;更改&lt;/span&gt;&lt;span lang=&quot;en-US&quot;&gt;JobDto&lt;/span&gt;）" style="text;html=1;align=center;verticalAlign=middle;resizable=0;points=[];autosize=1;strokeColor=none;fillColor=none;" vertex="1" parent="1">
          <mxGeometry x="485" y="120" width="160" height="70" as="geometry" />
        </mxCell>
        <mxCell id="IpG74CALEGy_LHDKiSj2-27" value="updataDataSinkConfig&lt;br&gt;ByDebuggingConfig&lt;br&gt;（&lt;span lang=&quot;zh-CN&quot;&gt;替换&lt;/span&gt;&lt;span lang=&quot;en-US&quot;&gt;FlinkSQL&lt;/span&gt;&lt;span lang=&quot;zh-CN&quot;&gt;的&lt;/span&gt;&lt;span lang=&quot;en-US&quot;&gt;sink&lt;/span&gt;&lt;span lang=&quot;zh-CN&quot;&gt;表&lt;/span&gt;）" style="text;html=1;align=center;verticalAlign=middle;resizable=0;points=[];autosize=1;strokeColor=none;fillColor=none;" vertex="1" parent="1">
          <mxGeometry x="475" y="220" width="170" height="60" as="geometry" />
        </mxCell>
      </root>
    </mxGraphModel>
  </diagram>
</mxfile>
